<mxfile host="Electron" modified="2023-05-29T22:58:46.665Z" agent="Mozilla/5.0 (Windows NT 10.0; Win64; x64) AppleWebKit/537.36 (KHTML, like Gecko) draw.io/21.2.1 Chrome/112.0.5615.87 Electron/24.1.2 Safari/537.36" etag="WZtbh3qvMI66Ii1uxoFi" version="21.2.1" type="device">
  <diagram name="Page-1" id="c4acf3e9-155e-7222-9cf6-157b1a14988f">
    <mxGraphModel dx="2801" dy="2065" grid="1" gridSize="10" guides="1" tooltips="1" connect="1" arrows="1" fold="1" page="1" pageScale="1" pageWidth="850" pageHeight="1100" background="none" math="0" shadow="0">
      <root>
        <mxCell id="0" />
        <mxCell id="1" parent="0" />
        <mxCell id="8R-MWv-Jxh_0D8zp07iF-3" value="Vehiculo&lt;br&gt;(abstract)" style="html=1;whiteSpace=wrap;" parent="1" vertex="1">
          <mxGeometry x="-190" y="75" width="120" height="40" as="geometry" />
        </mxCell>
        <mxCell id="8R-MWv-Jxh_0D8zp07iF-4" value="Mecanico" style="html=1;whiteSpace=wrap;" parent="1" vertex="1">
          <mxGeometry x="1155" y="65" width="120" height="40" as="geometry" />
        </mxCell>
        <mxCell id="8R-MWv-Jxh_0D8zp07iF-5" value="Cliente" style="html=1;whiteSpace=wrap;" parent="1" vertex="1">
          <mxGeometry x="1315" y="65" width="120" height="40" as="geometry" />
        </mxCell>
        <mxCell id="8R-MWv-Jxh_0D8zp07iF-7" value="Auto" style="html=1;whiteSpace=wrap;" parent="1" vertex="1">
          <mxGeometry x="-220" y="160" width="80" height="40" as="geometry" />
        </mxCell>
        <mxCell id="8R-MWv-Jxh_0D8zp07iF-8" value="Moto&lt;br&gt;" style="html=1;whiteSpace=wrap;" parent="1" vertex="1">
          <mxGeometry x="-110" y="160" width="120" height="40" as="geometry" />
        </mxCell>
        <mxCell id="8R-MWv-Jxh_0D8zp07iF-11" value="Extends" style="endArrow=block;endSize=16;endFill=0;html=1;rounded=0;entryX=0.5;entryY=0;entryDx=0;entryDy=0;exitX=0.451;exitY=1;exitDx=0;exitDy=0;exitPerimeter=0;" parent="1" source="8R-MWv-Jxh_0D8zp07iF-3" target="8R-MWv-Jxh_0D8zp07iF-7" edge="1">
          <mxGeometry width="160" relative="1" as="geometry">
            <mxPoint x="-190" y="120" as="sourcePoint" />
            <mxPoint x="-210" y="150" as="targetPoint" />
          </mxGeometry>
        </mxCell>
        <mxCell id="8R-MWv-Jxh_0D8zp07iF-12" value="Extends" style="endArrow=block;endSize=16;endFill=0;html=1;rounded=0;exitX=1;exitY=0.875;exitDx=0;exitDy=0;exitPerimeter=0;" parent="1" source="8R-MWv-Jxh_0D8zp07iF-3" edge="1">
          <mxGeometry width="160" relative="1" as="geometry">
            <mxPoint x="-70" y="120" as="sourcePoint" />
            <mxPoint x="-30" y="160" as="targetPoint" />
          </mxGeometry>
        </mxCell>
        <mxCell id="8R-MWv-Jxh_0D8zp07iF-14" value="Extends" style="endArrow=block;endSize=16;endFill=0;html=1;rounded=0;entryX=0.5;entryY=0;entryDx=0;entryDy=0;exitX=0.75;exitY=1;exitDx=0;exitDy=0;" parent="1" source="8R-MWv-Jxh_0D8zp07iF-2" target="8R-MWv-Jxh_0D8zp07iF-5" edge="1">
          <mxGeometry width="160" relative="1" as="geometry">
            <mxPoint x="1355" y="-45" as="sourcePoint" />
            <mxPoint x="1395" y="-5" as="targetPoint" />
          </mxGeometry>
        </mxCell>
        <mxCell id="8R-MWv-Jxh_0D8zp07iF-15" value="Extends" style="endArrow=block;endSize=16;endFill=0;html=1;rounded=0;entryX=0.333;entryY=0;entryDx=0;entryDy=0;exitX=-0.003;exitY=1.086;exitDx=0;exitDy=0;exitPerimeter=0;entryPerimeter=0;" parent="1" source="8R-MWv-Jxh_0D8zp07iF-2" target="8R-MWv-Jxh_0D8zp07iF-4" edge="1">
          <mxGeometry width="160" relative="1" as="geometry">
            <mxPoint x="1355" y="-45" as="sourcePoint" />
            <mxPoint x="1395" y="-85" as="targetPoint" />
          </mxGeometry>
        </mxCell>
        <mxCell id="8R-MWv-Jxh_0D8zp07iF-22" value="Gestion de vehiculos" style="html=1;whiteSpace=wrap;" parent="1" vertex="1">
          <mxGeometry x="-190" y="-40" width="120" height="80" as="geometry" />
        </mxCell>
        <mxCell id="8R-MWv-Jxh_0D8zp07iF-23" value="Gestion de Personas" style="html=1;whiteSpace=wrap;" parent="1" vertex="1">
          <mxGeometry x="1235" y="-205" width="120" height="80" as="geometry" />
        </mxCell>
        <mxCell id="8R-MWv-Jxh_0D8zp07iF-24" value="" style="endArrow=open;endFill=1;endSize=12;html=1;rounded=0;entryX=0.5;entryY=0;entryDx=0;entryDy=0;entryPerimeter=0;" parent="1" target="8R-MWv-Jxh_0D8zp07iF-3" edge="1">
          <mxGeometry width="160" relative="1" as="geometry">
            <mxPoint x="-130" y="40" as="sourcePoint" />
            <mxPoint x="-130" y="70" as="targetPoint" />
          </mxGeometry>
        </mxCell>
        <mxCell id="8R-MWv-Jxh_0D8zp07iF-25" value="" style="endArrow=open;endFill=1;endSize=12;html=1;rounded=0;entryX=0.5;entryY=0;entryDx=0;entryDy=0;" parent="1" target="8R-MWv-Jxh_0D8zp07iF-2" edge="1">
          <mxGeometry width="160" relative="1" as="geometry">
            <mxPoint x="1295" y="-125" as="sourcePoint" />
            <mxPoint x="1295" y="-95" as="targetPoint" />
          </mxGeometry>
        </mxCell>
        <mxCell id="8R-MWv-Jxh_0D8zp07iF-28" style="edgeStyle=orthogonalEdgeStyle;rounded=0;orthogonalLoop=1;jettySize=auto;html=1;exitX=0.5;exitY=1;exitDx=0;exitDy=0;" parent="1" source="8R-MWv-Jxh_0D8zp07iF-5" target="8R-MWv-Jxh_0D8zp07iF-5" edge="1">
          <mxGeometry relative="1" as="geometry" />
        </mxCell>
        <mxCell id="8R-MWv-Jxh_0D8zp07iF-29" value="Taller" style="html=1;whiteSpace=wrap;" parent="1" vertex="1">
          <mxGeometry x="325" y="-310" width="200" height="40" as="geometry" />
        </mxCell>
        <mxCell id="8R-MWv-Jxh_0D8zp07iF-30" value="" style="endArrow=open;endFill=1;endSize=12;html=1;rounded=0;entryX=0.5;entryY=0;entryDx=0;entryDy=0;exitX=0.446;exitY=0.957;exitDx=0;exitDy=0;exitPerimeter=0;" parent="1" source="8R-MWv-Jxh_0D8zp07iF-29" target="8R-MWv-Jxh_0D8zp07iF-22" edge="1">
          <mxGeometry width="160" relative="1" as="geometry">
            <mxPoint x="230" y="250" as="sourcePoint" />
            <mxPoint x="230" y="290" as="targetPoint" />
          </mxGeometry>
        </mxCell>
        <mxCell id="8R-MWv-Jxh_0D8zp07iF-31" value="" style="endArrow=open;endFill=1;endSize=12;html=1;rounded=0;entryX=0.5;entryY=0;entryDx=0;entryDy=0;exitX=0.5;exitY=1;exitDx=0;exitDy=0;" parent="1" source="8R-MWv-Jxh_0D8zp07iF-29" target="8R-MWv-Jxh_0D8zp07iF-23" edge="1">
          <mxGeometry width="160" relative="1" as="geometry">
            <mxPoint x="375.5" y="130" as="sourcePoint" />
            <mxPoint x="224.5" y="166" as="targetPoint" />
          </mxGeometry>
        </mxCell>
        <mxCell id="bO-0oKJ4pA9RCbOkCmkx-5" style="edgeStyle=orthogonalEdgeStyle;rounded=0;orthogonalLoop=1;jettySize=auto;html=1;exitX=0;exitY=0.5;exitDx=0;exitDy=0;entryX=0.5;entryY=0;entryDx=0;entryDy=0;" parent="1" source="8R-MWv-Jxh_0D8zp07iF-39" target="8R-MWv-Jxh_0D8zp07iF-59" edge="1">
          <mxGeometry relative="1" as="geometry" />
        </mxCell>
        <mxCell id="8R-MWv-Jxh_0D8zp07iF-36" value="Automotor" style="html=1;whiteSpace=wrap;" parent="1" vertex="1">
          <mxGeometry x="960" y="166" width="120" height="30" as="geometry" />
        </mxCell>
        <mxCell id="8R-MWv-Jxh_0D8zp07iF-37" value="Moto" style="html=1;whiteSpace=wrap;" parent="1" vertex="1">
          <mxGeometry x="1540" y="166" width="120" height="30" as="geometry" />
        </mxCell>
        <mxCell id="8R-MWv-Jxh_0D8zp07iF-39" value="General" style="html=1;whiteSpace=wrap;" parent="1" vertex="1">
          <mxGeometry x="1090" y="356" width="120" height="30" as="geometry" />
        </mxCell>
        <mxCell id="8R-MWv-Jxh_0D8zp07iF-40" value="Estetica" style="html=1;whiteSpace=wrap;" parent="1" vertex="1">
          <mxGeometry x="1250" y="356" width="120" height="30" as="geometry" />
        </mxCell>
        <mxCell id="8R-MWv-Jxh_0D8zp07iF-41" value="Electricidad" style="html=1;whiteSpace=wrap;" parent="1" vertex="1">
          <mxGeometry x="1420" y="356" width="120" height="30" as="geometry" />
        </mxCell>
        <mxCell id="8R-MWv-Jxh_0D8zp07iF-43" value="" style="endArrow=open;endFill=1;endSize=12;html=1;rounded=0;entryX=0.5;entryY=0;entryDx=0;entryDy=0;" parent="1" target="8R-MWv-Jxh_0D8zp07iF-36" edge="1">
          <mxGeometry width="160" relative="1" as="geometry">
            <mxPoint x="1200" y="105" as="sourcePoint" />
            <mxPoint x="855" y="146" as="targetPoint" />
            <Array as="points" />
          </mxGeometry>
        </mxCell>
        <mxCell id="8R-MWv-Jxh_0D8zp07iF-45" value="" style="endArrow=open;endFill=1;endSize=12;html=1;rounded=0;entryX=0.5;entryY=0;entryDx=0;entryDy=0;exitX=0.75;exitY=1;exitDx=0;exitDy=0;" parent="1" source="8R-MWv-Jxh_0D8zp07iF-4" target="8R-MWv-Jxh_0D8zp07iF-37" edge="1">
          <mxGeometry width="160" relative="1" as="geometry">
            <mxPoint x="895" y="106" as="sourcePoint" />
            <mxPoint x="835" y="136" as="targetPoint" />
            <Array as="points">
              <mxPoint x="1230" y="105" />
            </Array>
          </mxGeometry>
        </mxCell>
        <mxCell id="8R-MWv-Jxh_0D8zp07iF-49" value="Camion" style="html=1;whiteSpace=wrap;" parent="1" vertex="1">
          <mxGeometry x="-340" y="160" width="80" height="40" as="geometry" />
        </mxCell>
        <mxCell id="8R-MWv-Jxh_0D8zp07iF-50" value="Extends" style="endArrow=block;endSize=16;endFill=0;html=1;rounded=0;entryX=0.5;entryY=0;entryDx=0;entryDy=0;" parent="1" target="8R-MWv-Jxh_0D8zp07iF-49" edge="1">
          <mxGeometry width="160" relative="1" as="geometry">
            <mxPoint x="-190" y="120" as="sourcePoint" />
            <mxPoint x="-310" y="160" as="targetPoint" />
          </mxGeometry>
        </mxCell>
        <mxCell id="8R-MWv-Jxh_0D8zp07iF-59" value="Especialista Camion" style="html=1;whiteSpace=wrap;" parent="1" vertex="1">
          <mxGeometry x="930" y="406" width="120" height="30" as="geometry" />
        </mxCell>
        <mxCell id="bO-0oKJ4pA9RCbOkCmkx-1" value="&amp;lt;&amp;lt;Interface&amp;gt;&amp;gt;&lt;br&gt;General" style="rounded=0;whiteSpace=wrap;html=1;" parent="1" vertex="1">
          <mxGeometry x="1090" y="506" width="120" height="60" as="geometry" />
        </mxCell>
        <mxCell id="bO-0oKJ4pA9RCbOkCmkx-2" value="&amp;lt;&amp;lt;Interface&amp;gt;&amp;gt;&lt;br&gt;Estética" style="rounded=0;whiteSpace=wrap;html=1;" parent="1" vertex="1">
          <mxGeometry x="1250" y="506" width="120" height="60" as="geometry" />
        </mxCell>
        <mxCell id="bO-0oKJ4pA9RCbOkCmkx-3" value="&amp;lt;&amp;lt;Interface&amp;gt;&amp;gt;&lt;br&gt;Electricidad" style="rounded=0;whiteSpace=wrap;html=1;" parent="1" vertex="1">
          <mxGeometry x="1420" y="506" width="120" height="60" as="geometry" />
        </mxCell>
        <mxCell id="bO-0oKJ4pA9RCbOkCmkx-6" value="" style="endArrow=block;dashed=1;endFill=0;endSize=12;html=1;rounded=0;entryX=0.5;entryY=0;entryDx=0;entryDy=0;exitX=0.5;exitY=1;exitDx=0;exitDy=0;" parent="1" source="8R-MWv-Jxh_0D8zp07iF-39" target="bO-0oKJ4pA9RCbOkCmkx-1" edge="1">
          <mxGeometry width="160" relative="1" as="geometry">
            <mxPoint x="1270" y="286" as="sourcePoint" />
            <mxPoint x="1430" y="286" as="targetPoint" />
            <Array as="points" />
          </mxGeometry>
        </mxCell>
        <mxCell id="bO-0oKJ4pA9RCbOkCmkx-7" value="" style="endArrow=block;dashed=1;endFill=0;endSize=12;html=1;rounded=0;entryX=0.5;entryY=0;entryDx=0;entryDy=0;exitX=0.5;exitY=1;exitDx=0;exitDy=0;" parent="1" source="8R-MWv-Jxh_0D8zp07iF-40" target="bO-0oKJ4pA9RCbOkCmkx-2" edge="1">
          <mxGeometry width="160" relative="1" as="geometry">
            <mxPoint x="1270" y="286" as="sourcePoint" />
            <mxPoint x="1430" y="286" as="targetPoint" />
          </mxGeometry>
        </mxCell>
        <mxCell id="bO-0oKJ4pA9RCbOkCmkx-8" value="" style="endArrow=block;dashed=1;endFill=0;endSize=12;html=1;rounded=0;entryX=0.5;entryY=0;entryDx=0;entryDy=0;exitX=0.5;exitY=1;exitDx=0;exitDy=0;" parent="1" source="8R-MWv-Jxh_0D8zp07iF-41" target="bO-0oKJ4pA9RCbOkCmkx-3" edge="1">
          <mxGeometry width="160" relative="1" as="geometry">
            <mxPoint x="1280" y="336" as="sourcePoint" />
            <mxPoint x="1440" y="336" as="targetPoint" />
          </mxGeometry>
        </mxCell>
        <mxCell id="bO-0oKJ4pA9RCbOkCmkx-9" value="1" style="endArrow=open;html=1;endSize=12;startArrow=diamondThin;startSize=14;startFill=0;edgeStyle=orthogonalEdgeStyle;align=left;verticalAlign=bottom;rounded=0;entryX=0.075;entryY=-0.1;entryDx=0;entryDy=0;exitX=0;exitY=1;exitDx=0;exitDy=0;entryPerimeter=0;" parent="1" source="8R-MWv-Jxh_0D8zp07iF-36" target="8R-MWv-Jxh_0D8zp07iF-39" edge="1">
          <mxGeometry x="-1" y="3" relative="1" as="geometry">
            <mxPoint x="1160" y="316" as="sourcePoint" />
            <mxPoint x="1430" y="286" as="targetPoint" />
            <Array as="points">
              <mxPoint x="970" y="336" />
              <mxPoint x="1100" y="336" />
            </Array>
          </mxGeometry>
        </mxCell>
        <mxCell id="bO-0oKJ4pA9RCbOkCmkx-10" value="1" style="endArrow=open;html=1;endSize=12;startArrow=diamondThin;startSize=14;startFill=0;edgeStyle=orthogonalEdgeStyle;align=left;verticalAlign=bottom;rounded=0;entryX=0.175;entryY=-0.067;entryDx=0;entryDy=0;entryPerimeter=0;exitX=1;exitY=1;exitDx=0;exitDy=0;" parent="1" source="8R-MWv-Jxh_0D8zp07iF-36" target="8R-MWv-Jxh_0D8zp07iF-41" edge="1">
          <mxGeometry x="-0.8182" relative="1" as="geometry">
            <mxPoint x="1080" y="206" as="sourcePoint" />
            <mxPoint x="1430" y="286" as="targetPoint" />
            <Array as="points">
              <mxPoint x="1080" y="236" />
              <mxPoint x="1441" y="236" />
            </Array>
            <mxPoint as="offset" />
          </mxGeometry>
        </mxCell>
        <mxCell id="bO-0oKJ4pA9RCbOkCmkx-12" value="1" style="endArrow=open;html=1;endSize=12;startArrow=diamondThin;startSize=14;startFill=0;edgeStyle=orthogonalEdgeStyle;align=left;verticalAlign=bottom;rounded=0;exitX=0.583;exitY=1.067;exitDx=0;exitDy=0;exitPerimeter=0;" parent="1" source="8R-MWv-Jxh_0D8zp07iF-36" edge="1">
          <mxGeometry x="-1" y="3" relative="1" as="geometry">
            <mxPoint x="1030" y="206" as="sourcePoint" />
            <mxPoint x="1300" y="356" as="targetPoint" />
            <Array as="points">
              <mxPoint x="1030" y="286" />
              <mxPoint x="1300" y="286" />
            </Array>
          </mxGeometry>
        </mxCell>
        <mxCell id="bO-0oKJ4pA9RCbOkCmkx-13" value="1" style="endArrow=open;html=1;endSize=12;startArrow=diamondThin;startSize=14;startFill=0;edgeStyle=orthogonalEdgeStyle;align=left;verticalAlign=bottom;rounded=0;exitX=0.25;exitY=1;exitDx=0;exitDy=0;entryX=0.925;entryY=-0.1;entryDx=0;entryDy=0;entryPerimeter=0;" parent="1" source="8R-MWv-Jxh_0D8zp07iF-37" target="8R-MWv-Jxh_0D8zp07iF-39" edge="1">
          <mxGeometry x="-1" y="3" relative="1" as="geometry">
            <mxPoint x="1270" y="386" as="sourcePoint" />
            <mxPoint x="1200" y="346" as="targetPoint" />
            <Array as="points">
              <mxPoint x="1570" y="216" />
              <mxPoint x="1200" y="216" />
            </Array>
          </mxGeometry>
        </mxCell>
        <mxCell id="bO-0oKJ4pA9RCbOkCmkx-14" value="1" style="endArrow=open;html=1;endSize=12;startArrow=diamondThin;startSize=14;startFill=0;edgeStyle=orthogonalEdgeStyle;align=left;verticalAlign=bottom;rounded=0;entryX=0.842;entryY=0;entryDx=0;entryDy=0;entryPerimeter=0;exitX=0.5;exitY=1;exitDx=0;exitDy=0;" parent="1" source="8R-MWv-Jxh_0D8zp07iF-37" target="8R-MWv-Jxh_0D8zp07iF-40" edge="1">
          <mxGeometry x="-1" y="3" relative="1" as="geometry">
            <mxPoint x="1560" y="176" as="sourcePoint" />
            <mxPoint x="1430" y="386" as="targetPoint" />
            <Array as="points">
              <mxPoint x="1600" y="266" />
              <mxPoint x="1351" y="266" />
            </Array>
          </mxGeometry>
        </mxCell>
        <mxCell id="bO-0oKJ4pA9RCbOkCmkx-15" value="1" style="endArrow=open;html=1;endSize=12;startArrow=diamondThin;startSize=14;startFill=0;edgeStyle=orthogonalEdgeStyle;align=left;verticalAlign=bottom;rounded=0;entryX=0.75;entryY=0;entryDx=0;entryDy=0;" parent="1" target="8R-MWv-Jxh_0D8zp07iF-41" edge="1">
          <mxGeometry x="-1" y="3" relative="1" as="geometry">
            <mxPoint x="1643" y="195" as="sourcePoint" />
            <mxPoint x="1540" y="366" as="targetPoint" />
            <Array as="points">
              <mxPoint x="1643" y="286" />
              <mxPoint x="1510" y="286" />
            </Array>
          </mxGeometry>
        </mxCell>
        <mxCell id="bO-0oKJ4pA9RCbOkCmkx-17" value="Gestion de arreglos" style="html=1;whiteSpace=wrap;" parent="1" vertex="1">
          <mxGeometry x="360" y="190" width="130" height="80" as="geometry" />
        </mxCell>
        <mxCell id="bO-0oKJ4pA9RCbOkCmkx-18" value="Arreglo" style="html=1;whiteSpace=wrap;" parent="1" vertex="1">
          <mxGeometry x="370" y="320" width="110" height="50" as="geometry" />
        </mxCell>
        <mxCell id="bO-0oKJ4pA9RCbOkCmkx-19" value="1" style="endArrow=open;html=1;endSize=12;startArrow=diamondThin;startSize=14;startFill=0;edgeStyle=orthogonalEdgeStyle;align=left;verticalAlign=bottom;rounded=0;entryX=0.006;entryY=0.614;entryDx=0;entryDy=0;entryPerimeter=0;" parent="1" source="8R-MWv-Jxh_0D8zp07iF-3" edge="1">
          <mxGeometry x="-1" y="3" relative="1" as="geometry">
            <mxPoint x="410" y="610" as="sourcePoint" />
            <mxPoint x="370.65999999999985" y="210.69999999999982" as="targetPoint" />
            <Array as="points">
              <mxPoint x="130" y="95" />
              <mxPoint x="130" y="211" />
            </Array>
          </mxGeometry>
        </mxCell>
        <mxCell id="bO-0oKJ4pA9RCbOkCmkx-20" value="1" style="endArrow=open;html=1;endSize=12;startArrow=diamondThin;startSize=14;startFill=0;edgeStyle=orthogonalEdgeStyle;align=left;verticalAlign=bottom;rounded=0;entryX=0.5;entryY=1;entryDx=0;entryDy=0;exitX=0;exitY=0.25;exitDx=0;exitDy=0;" parent="1" source="8R-MWv-Jxh_0D8zp07iF-4" target="bO-0oKJ4pA9RCbOkCmkx-18" edge="1">
          <mxGeometry x="-1" y="3" relative="1" as="geometry">
            <mxPoint x="410" y="750" as="sourcePoint" />
            <mxPoint x="570" y="750" as="targetPoint" />
          </mxGeometry>
        </mxCell>
        <mxCell id="bO-0oKJ4pA9RCbOkCmkx-27" value="1" style="endArrow=open;html=1;endSize=12;startArrow=diamondThin;startSize=14;startFill=0;edgeStyle=orthogonalEdgeStyle;align=left;verticalAlign=bottom;rounded=0;exitX=0;exitY=0;exitDx=0;exitDy=0;" parent="1" source="8R-MWv-Jxh_0D8zp07iF-5" edge="1">
          <mxGeometry x="-1" y="3" relative="1" as="geometry">
            <mxPoint x="410" y="750" as="sourcePoint" />
            <mxPoint x="470" y="370" as="targetPoint" />
            <Array as="points">
              <mxPoint x="1075" y="440" />
              <mxPoint x="470" y="440" />
            </Array>
          </mxGeometry>
        </mxCell>
        <mxCell id="8R-MWv-Jxh_0D8zp07iF-2" value="Persona&lt;br&gt;(abstract)" style="html=1;whiteSpace=wrap;" parent="1" vertex="1">
          <mxGeometry x="1235" y="-50" width="120" height="40" as="geometry" />
        </mxCell>
        <mxCell id="bO-0oKJ4pA9RCbOkCmkx-29" value="" style="endArrow=classic;html=1;rounded=0;entryX=0.5;entryY=0;entryDx=0;entryDy=0;exitX=0.5;exitY=1;exitDx=0;exitDy=0;" parent="1" source="8R-MWv-Jxh_0D8zp07iF-29" target="bO-0oKJ4pA9RCbOkCmkx-17" edge="1">
          <mxGeometry width="50" height="50" relative="1" as="geometry">
            <mxPoint x="470" y="630" as="sourcePoint" />
            <mxPoint x="520" y="580" as="targetPoint" />
          </mxGeometry>
        </mxCell>
        <mxCell id="bO-0oKJ4pA9RCbOkCmkx-30" value="" style="endArrow=classic;html=1;rounded=0;entryX=0.5;entryY=0;entryDx=0;entryDy=0;exitX=0.5;exitY=1;exitDx=0;exitDy=0;" parent="1" edge="1">
          <mxGeometry width="50" height="50" relative="1" as="geometry">
            <mxPoint x="425" y="130" as="sourcePoint" />
            <mxPoint x="425" y="180" as="targetPoint" />
          </mxGeometry>
        </mxCell>
        <mxCell id="bO-0oKJ4pA9RCbOkCmkx-31" value="&lt;h1 style=&quot;&quot;&gt;&lt;font style=&quot;font-size: 14px;&quot;&gt;Arreglos&lt;/font&gt;&lt;/h1&gt;&lt;p style=&quot;&quot;&gt;&lt;font size=&quot;3&quot; style=&quot;&quot;&gt;En la gestión de arreglos vamos a poder obtener información como: Cantidad de arreglos pendientes, precio de un arreglo determinado, mecánico asignado a un arreglo determinado, cliente.&lt;/font&gt;&lt;/p&gt;" style="text;html=1;strokeColor=none;fillColor=none;spacing=5;spacingTop=-20;whiteSpace=wrap;overflow=hidden;rounded=0;" parent="1" vertex="1">
          <mxGeometry x="160" y="-40" width="190" height="240" as="geometry" />
        </mxCell>
        <mxCell id="bO-0oKJ4pA9RCbOkCmkx-32" value="&lt;h1 style=&quot;&quot;&gt;&lt;font style=&quot;font-size: 14px;&quot;&gt;Gestion de vehiculos&lt;/font&gt;&lt;/h1&gt;&lt;div style=&quot;&quot;&gt;&lt;font size=&quot;3&quot; style=&quot;&quot;&gt;Este modulo se encarga de gestionar los distintos vehiculos que se encuentran en el taller.&lt;/font&gt;&lt;/div&gt;" style="text;html=1;strokeColor=none;fillColor=none;spacing=5;spacingTop=-20;whiteSpace=wrap;overflow=hidden;rounded=0;" parent="1" vertex="1">
          <mxGeometry x="-420" y="-100" width="175" height="200" as="geometry" />
        </mxCell>
        <mxCell id="bO-0oKJ4pA9RCbOkCmkx-33" value="&lt;h1 style=&quot;&quot;&gt;&lt;font style=&quot;font-size: 14px;&quot;&gt;Personas&lt;/font&gt;&lt;/h1&gt;&lt;div style=&quot;&quot;&gt;&lt;font size=&quot;3&quot; style=&quot;&quot;&gt;En esta sección se gestionan todas las personas que se requieren en el sistema, tanto personal de la empresa como clientes&lt;/font&gt;&lt;/div&gt;&lt;div style=&quot;font-size: 11px;&quot;&gt;&lt;font style=&quot;font-size: 11px;&quot;&gt;&lt;br&gt;&lt;/font&gt;&lt;/div&gt;" style="text;html=1;strokeColor=none;fillColor=none;spacing=5;spacingTop=-20;whiteSpace=wrap;overflow=hidden;rounded=0;" parent="1" vertex="1">
          <mxGeometry x="1400" y="-210" width="190" height="185" as="geometry" />
        </mxCell>
        <mxCell id="tYgqTeKbONdqgD6k7K17-8" value="Persona(Abstract)" style="swimlane;fontStyle=1;align=center;verticalAlign=top;childLayout=stackLayout;horizontal=1;startSize=26;horizontalStack=0;resizeParent=1;resizeParentMax=0;resizeLast=0;collapsible=1;marginBottom=0;whiteSpace=wrap;html=1;" parent="1" vertex="1">
          <mxGeometry x="-840" y="520" width="160" height="138" as="geometry" />
        </mxCell>
        <mxCell id="tYgqTeKbONdqgD6k7K17-9" value="- Nombre&amp;nbsp;" style="text;strokeColor=none;fillColor=none;align=left;verticalAlign=top;spacingLeft=4;spacingRight=4;overflow=hidden;rotatable=0;points=[[0,0.5],[1,0.5]];portConstraint=eastwest;whiteSpace=wrap;html=1;" parent="tYgqTeKbONdqgD6k7K17-8" vertex="1">
          <mxGeometry y="26" width="160" height="26" as="geometry" />
        </mxCell>
        <mxCell id="tYgqTeKbONdqgD6k7K17-12" value="- Apellido" style="text;strokeColor=none;fillColor=none;align=left;verticalAlign=top;spacingLeft=4;spacingRight=4;overflow=hidden;rotatable=0;points=[[0,0.5],[1,0.5]];portConstraint=eastwest;whiteSpace=wrap;html=1;" parent="tYgqTeKbONdqgD6k7K17-8" vertex="1">
          <mxGeometry y="52" width="160" height="26" as="geometry" />
        </mxCell>
        <mxCell id="tYgqTeKbONdqgD6k7K17-13" value="-Edad" style="text;strokeColor=none;fillColor=none;align=left;verticalAlign=top;spacingLeft=4;spacingRight=4;overflow=hidden;rotatable=0;points=[[0,0.5],[1,0.5]];portConstraint=eastwest;whiteSpace=wrap;html=1;" parent="tYgqTeKbONdqgD6k7K17-8" vertex="1">
          <mxGeometry y="78" width="160" height="26" as="geometry" />
        </mxCell>
        <mxCell id="tYgqTeKbONdqgD6k7K17-10" value="" style="line;strokeWidth=1;fillColor=none;align=left;verticalAlign=middle;spacingTop=-1;spacingLeft=3;spacingRight=3;rotatable=0;labelPosition=right;points=[];portConstraint=eastwest;strokeColor=inherit;" parent="tYgqTeKbONdqgD6k7K17-8" vertex="1">
          <mxGeometry y="104" width="160" height="8" as="geometry" />
        </mxCell>
        <mxCell id="tYgqTeKbONdqgD6k7K17-11" value="+ method(type): type" style="text;strokeColor=none;fillColor=none;align=left;verticalAlign=top;spacingLeft=4;spacingRight=4;overflow=hidden;rotatable=0;points=[[0,0.5],[1,0.5]];portConstraint=eastwest;whiteSpace=wrap;html=1;" parent="tYgqTeKbONdqgD6k7K17-8" vertex="1">
          <mxGeometry y="112" width="160" height="26" as="geometry" />
        </mxCell>
        <mxCell id="tYgqTeKbONdqgD6k7K17-17" value="Cliente" style="swimlane;fontStyle=1;align=center;verticalAlign=top;childLayout=stackLayout;horizontal=1;startSize=26;horizontalStack=0;resizeParent=1;resizeParentMax=0;resizeLast=0;collapsible=1;marginBottom=0;whiteSpace=wrap;html=1;" parent="1" vertex="1">
          <mxGeometry x="-280" y="417" width="240" height="164" as="geometry" />
        </mxCell>
        <mxCell id="tYgqTeKbONdqgD6k7K17-18" value="- IdCliente : int" style="text;strokeColor=none;fillColor=none;align=left;verticalAlign=top;spacingLeft=4;spacingRight=4;overflow=hidden;rotatable=0;points=[[0,0.5],[1,0.5]];portConstraint=eastwest;whiteSpace=wrap;html=1;" parent="tYgqTeKbONdqgD6k7K17-17" vertex="1">
          <mxGeometry y="26" width="240" height="26" as="geometry" />
        </mxCell>
        <mxCell id="tYgqTeKbONdqgD6k7K17-19" value="- Historial&amp;nbsp; Arreglos : List&lt;br&gt;" style="text;strokeColor=none;fillColor=none;align=left;verticalAlign=top;spacingLeft=4;spacingRight=4;overflow=hidden;rotatable=0;points=[[0,0.5],[1,0.5]];portConstraint=eastwest;whiteSpace=wrap;html=1;" parent="tYgqTeKbONdqgD6k7K17-17" vertex="1">
          <mxGeometry y="52" width="240" height="26" as="geometry" />
        </mxCell>
        <mxCell id="tYgqTeKbONdqgD6k7K17-20" value="- Datos contacto&amp;nbsp; :&amp;nbsp; DatosContacto" style="text;strokeColor=none;fillColor=none;align=left;verticalAlign=top;spacingLeft=4;spacingRight=4;overflow=hidden;rotatable=0;points=[[0,0.5],[1,0.5]];portConstraint=eastwest;whiteSpace=wrap;html=1;" parent="tYgqTeKbONdqgD6k7K17-17" vertex="1">
          <mxGeometry y="78" width="240" height="26" as="geometry" />
        </mxCell>
        <mxCell id="tYgqTeKbONdqgD6k7K17-84" value="- Vehiculos&amp;nbsp; : Lista&amp;nbsp; Vehiculo" style="text;strokeColor=none;fillColor=none;align=left;verticalAlign=top;spacingLeft=4;spacingRight=4;overflow=hidden;rotatable=0;points=[[0,0.5],[1,0.5]];portConstraint=eastwest;whiteSpace=wrap;html=1;" parent="tYgqTeKbONdqgD6k7K17-17" vertex="1">
          <mxGeometry y="104" width="240" height="26" as="geometry" />
        </mxCell>
        <mxCell id="tYgqTeKbONdqgD6k7K17-21" value="" style="line;strokeWidth=1;fillColor=none;align=left;verticalAlign=middle;spacingTop=-1;spacingLeft=3;spacingRight=3;rotatable=0;labelPosition=right;points=[];portConstraint=eastwest;strokeColor=inherit;" parent="tYgqTeKbONdqgD6k7K17-17" vertex="1">
          <mxGeometry y="130" width="240" height="8" as="geometry" />
        </mxCell>
        <mxCell id="tYgqTeKbONdqgD6k7K17-22" value="+ method(type): type" style="text;strokeColor=none;fillColor=none;align=left;verticalAlign=top;spacingLeft=4;spacingRight=4;overflow=hidden;rotatable=0;points=[[0,0.5],[1,0.5]];portConstraint=eastwest;whiteSpace=wrap;html=1;" parent="tYgqTeKbONdqgD6k7K17-17" vertex="1">
          <mxGeometry y="138" width="240" height="26" as="geometry" />
        </mxCell>
        <mxCell id="tYgqTeKbONdqgD6k7K17-24" value="Personal(Abstract)" style="swimlane;fontStyle=1;align=center;verticalAlign=top;childLayout=stackLayout;horizontal=1;startSize=26;horizontalStack=0;resizeParent=1;resizeParentMax=0;resizeLast=0;collapsible=1;marginBottom=0;whiteSpace=wrap;html=1;" parent="1" vertex="1">
          <mxGeometry x="-640" y="640" width="240" height="138" as="geometry" />
        </mxCell>
        <mxCell id="tYgqTeKbONdqgD6k7K17-25" value="- IdEmpleado : int" style="text;strokeColor=none;fillColor=none;align=left;verticalAlign=top;spacingLeft=4;spacingRight=4;overflow=hidden;rotatable=0;points=[[0,0.5],[1,0.5]];portConstraint=eastwest;whiteSpace=wrap;html=1;" parent="tYgqTeKbONdqgD6k7K17-24" vertex="1">
          <mxGeometry y="26" width="240" height="26" as="geometry" />
        </mxCell>
        <mxCell id="tYgqTeKbONdqgD6k7K17-30" value="- Datos contacto : DatosContacto" style="text;strokeColor=none;fillColor=none;align=left;verticalAlign=top;spacingLeft=4;spacingRight=4;overflow=hidden;rotatable=0;points=[[0,0.5],[1,0.5]];portConstraint=eastwest;whiteSpace=wrap;html=1;" parent="tYgqTeKbONdqgD6k7K17-24" vertex="1">
          <mxGeometry y="52" width="240" height="26" as="geometry" />
        </mxCell>
        <mxCell id="tYgqTeKbONdqgD6k7K17-62" value="- Usuario : Usuario" style="text;strokeColor=none;fillColor=none;align=left;verticalAlign=top;spacingLeft=4;spacingRight=4;overflow=hidden;rotatable=0;points=[[0,0.5],[1,0.5]];portConstraint=eastwest;whiteSpace=wrap;html=1;" parent="tYgqTeKbONdqgD6k7K17-24" vertex="1">
          <mxGeometry y="78" width="240" height="26" as="geometry" />
        </mxCell>
        <mxCell id="tYgqTeKbONdqgD6k7K17-28" value="" style="line;strokeWidth=1;fillColor=none;align=left;verticalAlign=middle;spacingTop=-1;spacingLeft=3;spacingRight=3;rotatable=0;labelPosition=right;points=[];portConstraint=eastwest;strokeColor=inherit;" parent="tYgqTeKbONdqgD6k7K17-24" vertex="1">
          <mxGeometry y="104" width="240" height="8" as="geometry" />
        </mxCell>
        <mxCell id="tYgqTeKbONdqgD6k7K17-29" value="+ method(type): type" style="text;strokeColor=none;fillColor=none;align=left;verticalAlign=top;spacingLeft=4;spacingRight=4;overflow=hidden;rotatable=0;points=[[0,0.5],[1,0.5]];portConstraint=eastwest;whiteSpace=wrap;html=1;" parent="tYgqTeKbONdqgD6k7K17-24" vertex="1">
          <mxGeometry y="112" width="240" height="26" as="geometry" />
        </mxCell>
        <mxCell id="tYgqTeKbONdqgD6k7K17-33" value="Encargado" style="swimlane;fontStyle=1;align=center;verticalAlign=top;childLayout=stackLayout;horizontal=1;startSize=26;horizontalStack=0;resizeParent=1;resizeParentMax=0;resizeLast=0;collapsible=1;marginBottom=0;whiteSpace=wrap;html=1;" parent="1" vertex="1">
          <mxGeometry x="-280" y="630" width="240" height="60" as="geometry" />
        </mxCell>
        <mxCell id="tYgqTeKbONdqgD6k7K17-37" value="" style="line;strokeWidth=1;fillColor=none;align=left;verticalAlign=middle;spacingTop=-1;spacingLeft=3;spacingRight=3;rotatable=0;labelPosition=right;points=[];portConstraint=eastwest;strokeColor=inherit;" parent="tYgqTeKbONdqgD6k7K17-33" vertex="1">
          <mxGeometry y="26" width="240" height="8" as="geometry" />
        </mxCell>
        <mxCell id="tYgqTeKbONdqgD6k7K17-38" value="+ method(type): type" style="text;strokeColor=none;fillColor=none;align=left;verticalAlign=top;spacingLeft=4;spacingRight=4;overflow=hidden;rotatable=0;points=[[0,0.5],[1,0.5]];portConstraint=eastwest;whiteSpace=wrap;html=1;" parent="tYgqTeKbONdqgD6k7K17-33" vertex="1">
          <mxGeometry y="34" width="240" height="26" as="geometry" />
        </mxCell>
        <mxCell id="tYgqTeKbONdqgD6k7K17-39" value="Mecanico" style="swimlane;fontStyle=1;align=center;verticalAlign=top;childLayout=stackLayout;horizontal=1;startSize=26;horizontalStack=0;resizeParent=1;resizeParentMax=0;resizeLast=0;collapsible=1;marginBottom=0;whiteSpace=wrap;html=1;" parent="1" vertex="1">
          <mxGeometry x="-280" y="715" width="240" height="138" as="geometry" />
        </mxCell>
        <mxCell id="tYgqTeKbONdqgD6k7K17-42" value="- Arreglos : List" style="text;strokeColor=none;fillColor=none;align=left;verticalAlign=top;spacingLeft=4;spacingRight=4;overflow=hidden;rotatable=0;points=[[0,0.5],[1,0.5]];portConstraint=eastwest;whiteSpace=wrap;html=1;" parent="tYgqTeKbONdqgD6k7K17-39" vertex="1">
          <mxGeometry y="26" width="240" height="26" as="geometry" />
        </mxCell>
        <mxCell id="tYgqTeKbONdqgD6k7K17-64" value="- TipoDeVehiculo:&amp;nbsp; Enum ( A o B )&amp;nbsp;" style="text;strokeColor=none;fillColor=none;align=left;verticalAlign=top;spacingLeft=4;spacingRight=4;overflow=hidden;rotatable=0;points=[[0,0.5],[1,0.5]];portConstraint=eastwest;whiteSpace=wrap;html=1;" parent="tYgqTeKbONdqgD6k7K17-39" vertex="1">
          <mxGeometry y="52" width="240" height="26" as="geometry" />
        </mxCell>
        <mxCell id="tYgqTeKbONdqgD6k7K17-65" value="- Especialidad: Especialidad ( 1, 2, 3 )&amp;nbsp;" style="text;strokeColor=none;fillColor=none;align=left;verticalAlign=top;spacingLeft=4;spacingRight=4;overflow=hidden;rotatable=0;points=[[0,0.5],[1,0.5]];portConstraint=eastwest;whiteSpace=wrap;html=1;" parent="tYgqTeKbONdqgD6k7K17-39" vertex="1">
          <mxGeometry y="78" width="240" height="26" as="geometry" />
        </mxCell>
        <mxCell id="tYgqTeKbONdqgD6k7K17-43" value="" style="line;strokeWidth=1;fillColor=none;align=left;verticalAlign=middle;spacingTop=-1;spacingLeft=3;spacingRight=3;rotatable=0;labelPosition=right;points=[];portConstraint=eastwest;strokeColor=inherit;" parent="tYgqTeKbONdqgD6k7K17-39" vertex="1">
          <mxGeometry y="104" width="240" height="8" as="geometry" />
        </mxCell>
        <mxCell id="tYgqTeKbONdqgD6k7K17-44" value="+ method(type): type" style="text;strokeColor=none;fillColor=none;align=left;verticalAlign=top;spacingLeft=4;spacingRight=4;overflow=hidden;rotatable=0;points=[[0,0.5],[1,0.5]];portConstraint=eastwest;whiteSpace=wrap;html=1;" parent="tYgqTeKbONdqgD6k7K17-39" vertex="1">
          <mxGeometry y="112" width="240" height="26" as="geometry" />
        </mxCell>
        <mxCell id="tYgqTeKbONdqgD6k7K17-48" value="Usuario" style="swimlane;fontStyle=1;align=center;verticalAlign=top;childLayout=stackLayout;horizontal=1;startSize=26;horizontalStack=0;resizeParent=1;resizeParentMax=0;resizeLast=0;collapsible=1;marginBottom=0;whiteSpace=wrap;html=1;" parent="1" vertex="1">
          <mxGeometry x="-640" y="843" width="240" height="138" as="geometry" />
        </mxCell>
        <mxCell id="tYgqTeKbONdqgD6k7K17-50" value="- IdUsuario : int&lt;br&gt;" style="text;strokeColor=none;fillColor=none;align=left;verticalAlign=top;spacingLeft=4;spacingRight=4;overflow=hidden;rotatable=0;points=[[0,0.5],[1,0.5]];portConstraint=eastwest;whiteSpace=wrap;html=1;" parent="tYgqTeKbONdqgD6k7K17-48" vertex="1">
          <mxGeometry y="26" width="240" height="26" as="geometry" />
        </mxCell>
        <mxCell id="tYgqTeKbONdqgD6k7K17-56" value="- Privilegios:&amp;nbsp; NivelDeAcceso" style="text;strokeColor=none;fillColor=none;align=left;verticalAlign=top;spacingLeft=4;spacingRight=4;overflow=hidden;rotatable=0;points=[[0,0.5],[1,0.5]];portConstraint=eastwest;whiteSpace=wrap;html=1;" parent="tYgqTeKbONdqgD6k7K17-48" vertex="1">
          <mxGeometry y="52" width="240" height="26" as="geometry" />
        </mxCell>
        <mxCell id="tYgqTeKbONdqgD6k7K17-53" value="- Password :&amp;nbsp; passwordField" style="text;strokeColor=none;fillColor=none;align=left;verticalAlign=top;spacingLeft=4;spacingRight=4;overflow=hidden;rotatable=0;points=[[0,0.5],[1,0.5]];portConstraint=eastwest;whiteSpace=wrap;html=1;" parent="tYgqTeKbONdqgD6k7K17-48" vertex="1">
          <mxGeometry y="78" width="240" height="26" as="geometry" />
        </mxCell>
        <mxCell id="tYgqTeKbONdqgD6k7K17-51" value="" style="line;strokeWidth=1;fillColor=none;align=left;verticalAlign=middle;spacingTop=-1;spacingLeft=3;spacingRight=3;rotatable=0;labelPosition=right;points=[];portConstraint=eastwest;strokeColor=inherit;" parent="tYgqTeKbONdqgD6k7K17-48" vertex="1">
          <mxGeometry y="104" width="240" height="8" as="geometry" />
        </mxCell>
        <mxCell id="tYgqTeKbONdqgD6k7K17-52" value="+ method(type): type" style="text;strokeColor=none;fillColor=none;align=left;verticalAlign=top;spacingLeft=4;spacingRight=4;overflow=hidden;rotatable=0;points=[[0,0.5],[1,0.5]];portConstraint=eastwest;whiteSpace=wrap;html=1;" parent="tYgqTeKbONdqgD6k7K17-48" vertex="1">
          <mxGeometry y="112" width="240" height="26" as="geometry" />
        </mxCell>
        <mxCell id="tYgqTeKbONdqgD6k7K17-57" value="Extends" style="endArrow=block;endSize=16;endFill=0;html=1;rounded=0;exitX=0;exitY=0.5;exitDx=0;exitDy=0;entryX=0.41;entryY=1.147;entryDx=0;entryDy=0;entryPerimeter=0;" parent="1" source="tYgqTeKbONdqgD6k7K17-30" target="tYgqTeKbONdqgD6k7K17-11" edge="1">
          <mxGeometry width="160" relative="1" as="geometry">
            <mxPoint x="-800" y="710" as="sourcePoint" />
            <mxPoint x="-780" y="750" as="targetPoint" />
          </mxGeometry>
        </mxCell>
        <mxCell id="tYgqTeKbONdqgD6k7K17-58" value="Extends" style="endArrow=block;endSize=16;endFill=0;html=1;rounded=0;entryX=1.009;entryY=0.707;entryDx=0;entryDy=0;entryPerimeter=0;" parent="1" target="tYgqTeKbONdqgD6k7K17-28" edge="1">
          <mxGeometry width="160" relative="1" as="geometry">
            <mxPoint x="-280" y="750" as="sourcePoint" />
            <mxPoint x="-350" y="870" as="targetPoint" />
          </mxGeometry>
        </mxCell>
        <mxCell id="tYgqTeKbONdqgD6k7K17-59" value="Extends" style="endArrow=block;endSize=16;endFill=0;html=1;rounded=0;" parent="1" target="tYgqTeKbONdqgD6k7K17-25" edge="1">
          <mxGeometry width="160" relative="1" as="geometry">
            <mxPoint x="-280" y="677" as="sourcePoint" />
            <mxPoint x="-410" y="690" as="targetPoint" />
          </mxGeometry>
        </mxCell>
        <mxCell id="tYgqTeKbONdqgD6k7K17-60" value="Extends" style="endArrow=block;endSize=16;endFill=0;html=1;rounded=0;exitX=-0.009;exitY=0.095;exitDx=0;exitDy=0;exitPerimeter=0;" parent="1" source="tYgqTeKbONdqgD6k7K17-17" edge="1">
          <mxGeometry width="160" relative="1" as="geometry">
            <mxPoint x="-580" y="585" as="sourcePoint" />
            <mxPoint x="-680" y="584.5" as="targetPoint" />
          </mxGeometry>
        </mxCell>
        <mxCell id="tYgqTeKbONdqgD6k7K17-63" value="1" style="endArrow=open;html=1;endSize=12;startArrow=diamondThin;startSize=14;startFill=1;edgeStyle=orthogonalEdgeStyle;align=left;verticalAlign=bottom;rounded=0;exitX=0;exitY=0.5;exitDx=0;exitDy=0;entryX=-0.007;entryY=0.138;entryDx=0;entryDy=0;entryPerimeter=0;" parent="1" source="tYgqTeKbONdqgD6k7K17-62" target="tYgqTeKbONdqgD6k7K17-50" edge="1">
          <mxGeometry x="-1" y="3" relative="1" as="geometry">
            <mxPoint x="-780" y="890" as="sourcePoint" />
            <mxPoint x="-520" y="840" as="targetPoint" />
            <Array as="points">
              <mxPoint x="-690" y="731" />
              <mxPoint x="-690" y="873" />
            </Array>
          </mxGeometry>
        </mxCell>
        <mxCell id="tYgqTeKbONdqgD6k7K17-66" value="Vehiculos" style="swimlane;fontStyle=1;align=center;verticalAlign=top;childLayout=stackLayout;horizontal=1;startSize=26;horizontalStack=0;resizeParent=1;resizeParentMax=0;resizeLast=0;collapsible=1;marginBottom=0;whiteSpace=wrap;html=1;" parent="1" vertex="1">
          <mxGeometry x="80" y="481" width="160" height="164" as="geometry" />
        </mxCell>
        <mxCell id="tYgqTeKbONdqgD6k7K17-67" value="- IdVehiculo: int" style="text;strokeColor=none;fillColor=none;align=left;verticalAlign=top;spacingLeft=4;spacingRight=4;overflow=hidden;rotatable=0;points=[[0,0.5],[1,0.5]];portConstraint=eastwest;whiteSpace=wrap;html=1;" parent="tYgqTeKbONdqgD6k7K17-66" vertex="1">
          <mxGeometry y="26" width="160" height="26" as="geometry" />
        </mxCell>
        <mxCell id="tYgqTeKbONdqgD6k7K17-68" value="- AñoFabricacion:&amp;nbsp; int&amp;nbsp;" style="text;strokeColor=none;fillColor=none;align=left;verticalAlign=top;spacingLeft=4;spacingRight=4;overflow=hidden;rotatable=0;points=[[0,0.5],[1,0.5]];portConstraint=eastwest;whiteSpace=wrap;html=1;" parent="tYgqTeKbONdqgD6k7K17-66" vertex="1">
          <mxGeometry y="52" width="160" height="26" as="geometry" />
        </mxCell>
        <mxCell id="r7NLMUJMG4GeXNWXNTqN-3" value="- TipoDeVehiculo:&amp;nbsp; Enum" style="text;strokeColor=none;fillColor=none;align=left;verticalAlign=top;spacingLeft=4;spacingRight=4;overflow=hidden;rotatable=0;points=[[0,0.5],[1,0.5]];portConstraint=eastwest;whiteSpace=wrap;html=1;" vertex="1" parent="tYgqTeKbONdqgD6k7K17-66">
          <mxGeometry y="78" width="160" height="26" as="geometry" />
        </mxCell>
        <mxCell id="tYgqTeKbONdqgD6k7K17-69" value="-Marca : String" style="text;strokeColor=none;fillColor=none;align=left;verticalAlign=top;spacingLeft=4;spacingRight=4;overflow=hidden;rotatable=0;points=[[0,0.5],[1,0.5]];portConstraint=eastwest;whiteSpace=wrap;html=1;" parent="tYgqTeKbONdqgD6k7K17-66" vertex="1">
          <mxGeometry y="104" width="160" height="26" as="geometry" />
        </mxCell>
        <mxCell id="tYgqTeKbONdqgD6k7K17-70" value="" style="line;strokeWidth=1;fillColor=none;align=left;verticalAlign=middle;spacingTop=-1;spacingLeft=3;spacingRight=3;rotatable=0;labelPosition=right;points=[];portConstraint=eastwest;strokeColor=inherit;" parent="tYgqTeKbONdqgD6k7K17-66" vertex="1">
          <mxGeometry y="130" width="160" height="8" as="geometry" />
        </mxCell>
        <mxCell id="tYgqTeKbONdqgD6k7K17-71" value="+ method(type): type" style="text;strokeColor=none;fillColor=none;align=left;verticalAlign=top;spacingLeft=4;spacingRight=4;overflow=hidden;rotatable=0;points=[[0,0.5],[1,0.5]];portConstraint=eastwest;whiteSpace=wrap;html=1;" parent="tYgqTeKbONdqgD6k7K17-66" vertex="1">
          <mxGeometry y="138" width="160" height="26" as="geometry" />
        </mxCell>
        <mxCell id="tYgqTeKbONdqgD6k7K17-72" value="Auto" style="swimlane;fontStyle=1;align=center;verticalAlign=top;childLayout=stackLayout;horizontal=1;startSize=26;horizontalStack=0;resizeParent=1;resizeParentMax=0;resizeLast=0;collapsible=1;marginBottom=0;whiteSpace=wrap;html=1;" parent="1" vertex="1">
          <mxGeometry x="365" y="532" width="160" height="60" as="geometry" />
        </mxCell>
        <mxCell id="tYgqTeKbONdqgD6k7K17-76" value="" style="line;strokeWidth=1;fillColor=none;align=left;verticalAlign=middle;spacingTop=-1;spacingLeft=3;spacingRight=3;rotatable=0;labelPosition=right;points=[];portConstraint=eastwest;strokeColor=inherit;" parent="tYgqTeKbONdqgD6k7K17-72" vertex="1">
          <mxGeometry y="26" width="160" height="8" as="geometry" />
        </mxCell>
        <mxCell id="tYgqTeKbONdqgD6k7K17-77" value="+ method(type): type" style="text;strokeColor=none;fillColor=none;align=left;verticalAlign=top;spacingLeft=4;spacingRight=4;overflow=hidden;rotatable=0;points=[[0,0.5],[1,0.5]];portConstraint=eastwest;whiteSpace=wrap;html=1;" parent="tYgqTeKbONdqgD6k7K17-72" vertex="1">
          <mxGeometry y="34" width="160" height="26" as="geometry" />
        </mxCell>
        <mxCell id="tYgqTeKbONdqgD6k7K17-78" value="Moto" style="swimlane;fontStyle=1;align=center;verticalAlign=top;childLayout=stackLayout;horizontal=1;startSize=26;horizontalStack=0;resizeParent=1;resizeParentMax=0;resizeLast=0;collapsible=1;marginBottom=0;whiteSpace=wrap;html=1;" parent="1" vertex="1">
          <mxGeometry x="365" y="610" width="160" height="60" as="geometry" />
        </mxCell>
        <mxCell id="tYgqTeKbONdqgD6k7K17-79" value="" style="line;strokeWidth=1;fillColor=none;align=left;verticalAlign=middle;spacingTop=-1;spacingLeft=3;spacingRight=3;rotatable=0;labelPosition=right;points=[];portConstraint=eastwest;strokeColor=inherit;" parent="tYgqTeKbONdqgD6k7K17-78" vertex="1">
          <mxGeometry y="26" width="160" height="8" as="geometry" />
        </mxCell>
        <mxCell id="tYgqTeKbONdqgD6k7K17-80" value="+ method(type): type" style="text;strokeColor=none;fillColor=none;align=left;verticalAlign=top;spacingLeft=4;spacingRight=4;overflow=hidden;rotatable=0;points=[[0,0.5],[1,0.5]];portConstraint=eastwest;whiteSpace=wrap;html=1;" parent="tYgqTeKbONdqgD6k7K17-78" vertex="1">
          <mxGeometry y="34" width="160" height="26" as="geometry" />
        </mxCell>
        <mxCell id="tYgqTeKbONdqgD6k7K17-81" value="Camion" style="swimlane;fontStyle=1;align=center;verticalAlign=top;childLayout=stackLayout;horizontal=1;startSize=26;horizontalStack=0;resizeParent=1;resizeParentMax=0;resizeLast=0;collapsible=1;marginBottom=0;whiteSpace=wrap;html=1;" parent="1" vertex="1">
          <mxGeometry x="365" y="450" width="160" height="60" as="geometry" />
        </mxCell>
        <mxCell id="tYgqTeKbONdqgD6k7K17-82" value="" style="line;strokeWidth=1;fillColor=none;align=left;verticalAlign=middle;spacingTop=-1;spacingLeft=3;spacingRight=3;rotatable=0;labelPosition=right;points=[];portConstraint=eastwest;strokeColor=inherit;" parent="tYgqTeKbONdqgD6k7K17-81" vertex="1">
          <mxGeometry y="26" width="160" height="8" as="geometry" />
        </mxCell>
        <mxCell id="tYgqTeKbONdqgD6k7K17-83" value="+ method(type): type" style="text;strokeColor=none;fillColor=none;align=left;verticalAlign=top;spacingLeft=4;spacingRight=4;overflow=hidden;rotatable=0;points=[[0,0.5],[1,0.5]];portConstraint=eastwest;whiteSpace=wrap;html=1;" parent="tYgqTeKbONdqgD6k7K17-81" vertex="1">
          <mxGeometry y="34" width="160" height="26" as="geometry" />
        </mxCell>
        <mxCell id="tYgqTeKbONdqgD6k7K17-86" value="1" style="endArrow=open;html=1;endSize=12;startArrow=diamondThin;startSize=14;startFill=1;edgeStyle=orthogonalEdgeStyle;align=left;verticalAlign=bottom;rounded=0;entryX=0;entryY=-0.015;entryDx=0;entryDy=0;entryPerimeter=0;exitX=1.005;exitY=0.416;exitDx=0;exitDy=0;exitPerimeter=0;" parent="1" source="tYgqTeKbONdqgD6k7K17-20" target="tYgqTeKbONdqgD6k7K17-67" edge="1">
          <mxGeometry x="-1" y="3" relative="1" as="geometry">
            <mxPoint y="506" as="sourcePoint" />
            <mxPoint x="110" y="500" as="targetPoint" />
            <Array as="points">
              <mxPoint x="80" y="506" />
            </Array>
          </mxGeometry>
        </mxCell>
        <mxCell id="tYgqTeKbONdqgD6k7K17-91" value="Arreglos" style="swimlane;fontStyle=1;align=center;verticalAlign=top;childLayout=stackLayout;horizontal=1;startSize=26;horizontalStack=0;resizeParent=1;resizeParentMax=0;resizeLast=0;collapsible=1;marginBottom=0;whiteSpace=wrap;html=1;" parent="1" vertex="1">
          <mxGeometry x="80" y="680" width="160" height="300" as="geometry" />
        </mxCell>
        <mxCell id="tYgqTeKbONdqgD6k7K17-92" value="- IdArreglo: int" style="text;strokeColor=none;fillColor=none;align=left;verticalAlign=top;spacingLeft=4;spacingRight=4;overflow=hidden;rotatable=0;points=[[0,0.5],[1,0.5]];portConstraint=eastwest;whiteSpace=wrap;html=1;" parent="tYgqTeKbONdqgD6k7K17-91" vertex="1">
          <mxGeometry y="26" width="160" height="26" as="geometry" />
        </mxCell>
        <mxCell id="tYgqTeKbONdqgD6k7K17-97" value="-IdVehiculo : int&amp;nbsp;" style="text;strokeColor=none;fillColor=none;align=left;verticalAlign=top;spacingLeft=4;spacingRight=4;overflow=hidden;rotatable=0;points=[[0,0.5],[1,0.5]];portConstraint=eastwest;whiteSpace=wrap;html=1;" parent="tYgqTeKbONdqgD6k7K17-91" vertex="1">
          <mxGeometry y="52" width="160" height="26" as="geometry" />
        </mxCell>
        <mxCell id="tYgqTeKbONdqgD6k7K17-100" value="-IdCliente : int&amp;nbsp;" style="text;strokeColor=none;fillColor=none;align=left;verticalAlign=top;spacingLeft=4;spacingRight=4;overflow=hidden;rotatable=0;points=[[0,0.5],[1,0.5]];portConstraint=eastwest;whiteSpace=wrap;html=1;" parent="tYgqTeKbONdqgD6k7K17-91" vertex="1">
          <mxGeometry y="78" width="160" height="26" as="geometry" />
        </mxCell>
        <mxCell id="r7NLMUJMG4GeXNWXNTqN-1" value="-IdEmpleado : int&amp;nbsp;" style="text;strokeColor=none;fillColor=none;align=left;verticalAlign=top;spacingLeft=4;spacingRight=4;overflow=hidden;rotatable=0;points=[[0,0.5],[1,0.5]];portConstraint=eastwest;whiteSpace=wrap;html=1;" vertex="1" parent="tYgqTeKbONdqgD6k7K17-91">
          <mxGeometry y="104" width="160" height="26" as="geometry" />
        </mxCell>
        <mxCell id="tYgqTeKbONdqgD6k7K17-93" value="- DetalleCliente:&amp;nbsp; String" style="text;strokeColor=none;fillColor=none;align=left;verticalAlign=top;spacingLeft=4;spacingRight=4;overflow=hidden;rotatable=0;points=[[0,0.5],[1,0.5]];portConstraint=eastwest;whiteSpace=wrap;html=1;" parent="tYgqTeKbONdqgD6k7K17-91" vertex="1">
          <mxGeometry y="130" width="160" height="26" as="geometry" />
        </mxCell>
        <mxCell id="r7NLMUJMG4GeXNWXNTqN-11" value="- FechaDeEntrada:&amp;nbsp; Date" style="text;strokeColor=none;fillColor=none;align=left;verticalAlign=top;spacingLeft=4;spacingRight=4;overflow=hidden;rotatable=0;points=[[0,0.5],[1,0.5]];portConstraint=eastwest;whiteSpace=wrap;html=1;" vertex="1" parent="tYgqTeKbONdqgD6k7K17-91">
          <mxGeometry y="156" width="160" height="26" as="geometry" />
        </mxCell>
        <mxCell id="tYgqTeKbONdqgD6k7K17-94" value="- DetalleDelArreglo: String" style="text;strokeColor=none;fillColor=none;align=left;verticalAlign=top;spacingLeft=4;spacingRight=4;overflow=hidden;rotatable=0;points=[[0,0.5],[1,0.5]];portConstraint=eastwest;whiteSpace=wrap;html=1;" parent="tYgqTeKbONdqgD6k7K17-91" vertex="1">
          <mxGeometry y="182" width="160" height="26" as="geometry" />
        </mxCell>
        <mxCell id="tYgqTeKbONdqgD6k7K17-98" value="- Costo: dobule&lt;br&gt;" style="text;strokeColor=none;fillColor=none;align=left;verticalAlign=top;spacingLeft=4;spacingRight=4;overflow=hidden;rotatable=0;points=[[0,0.5],[1,0.5]];portConstraint=eastwest;whiteSpace=wrap;html=1;" parent="tYgqTeKbONdqgD6k7K17-91" vertex="1">
          <mxGeometry y="208" width="160" height="26" as="geometry" />
        </mxCell>
        <mxCell id="tYgqTeKbONdqgD6k7K17-99" value="- EstaListo: booleano" style="text;strokeColor=none;fillColor=none;align=left;verticalAlign=top;spacingLeft=4;spacingRight=4;overflow=hidden;rotatable=0;points=[[0,0.5],[1,0.5]];portConstraint=eastwest;whiteSpace=wrap;html=1;" parent="tYgqTeKbONdqgD6k7K17-91" vertex="1">
          <mxGeometry y="234" width="160" height="26" as="geometry" />
        </mxCell>
        <mxCell id="tYgqTeKbONdqgD6k7K17-95" value="" style="line;strokeWidth=1;fillColor=none;align=left;verticalAlign=middle;spacingTop=-1;spacingLeft=3;spacingRight=3;rotatable=0;labelPosition=right;points=[];portConstraint=eastwest;strokeColor=inherit;" parent="tYgqTeKbONdqgD6k7K17-91" vertex="1">
          <mxGeometry y="260" width="160" height="8" as="geometry" />
        </mxCell>
        <mxCell id="tYgqTeKbONdqgD6k7K17-96" value="+ method(type): type" style="text;strokeColor=none;fillColor=none;align=left;verticalAlign=top;spacingLeft=4;spacingRight=4;overflow=hidden;rotatable=0;points=[[0,0.5],[1,0.5]];portConstraint=eastwest;whiteSpace=wrap;html=1;" parent="tYgqTeKbONdqgD6k7K17-91" vertex="1">
          <mxGeometry y="268" width="160" height="32" as="geometry" />
        </mxCell>
        <mxCell id="r7NLMUJMG4GeXNWXNTqN-2" value="n" style="endArrow=open;html=1;endSize=12;startArrow=diamondThin;startSize=14;startFill=1;edgeStyle=orthogonalEdgeStyle;align=left;verticalAlign=bottom;rounded=0;entryX=0;entryY=-0.015;entryDx=0;entryDy=0;entryPerimeter=0;exitX=1.005;exitY=0.416;exitDx=0;exitDy=0;exitPerimeter=0;" edge="1" parent="1">
          <mxGeometry x="-0.8333" y="10" relative="1" as="geometry">
            <mxPoint x="-40" y="750" as="sourcePoint" />
            <mxPoint x="79" y="751" as="targetPoint" />
            <Array as="points">
              <mxPoint x="79" y="750" />
            </Array>
            <mxPoint as="offset" />
          </mxGeometry>
        </mxCell>
        <mxCell id="r7NLMUJMG4GeXNWXNTqN-7" value="1" style="endArrow=open;html=1;endSize=12;startArrow=diamondThin;startSize=14;startFill=1;edgeStyle=orthogonalEdgeStyle;align=left;verticalAlign=bottom;rounded=0;entryX=-0.007;entryY=0.103;entryDx=0;entryDy=0;entryPerimeter=0;" edge="1" parent="1" target="tYgqTeKbONdqgD6k7K17-81">
          <mxGeometry x="-1" y="3" relative="1" as="geometry">
            <mxPoint x="240" y="499" as="sourcePoint" />
            <mxPoint x="390" y="498.58" as="targetPoint" />
            <Array as="points">
              <mxPoint x="310" y="499" />
              <mxPoint x="310" y="456" />
            </Array>
          </mxGeometry>
        </mxCell>
        <mxCell id="r7NLMUJMG4GeXNWXNTqN-9" value="1" style="endArrow=open;html=1;endSize=12;startArrow=diamondThin;startSize=14;startFill=1;edgeStyle=orthogonalEdgeStyle;align=left;verticalAlign=bottom;rounded=0;" edge="1" parent="1">
          <mxGeometry x="-1" y="3" relative="1" as="geometry">
            <mxPoint x="240" y="630" as="sourcePoint" />
            <mxPoint x="365" y="630" as="targetPoint" />
            <Array as="points">
              <mxPoint x="365" y="630" />
            </Array>
          </mxGeometry>
        </mxCell>
        <mxCell id="r7NLMUJMG4GeXNWXNTqN-10" value="1" style="endArrow=open;html=1;endSize=12;startArrow=diamondThin;startSize=14;startFill=1;edgeStyle=orthogonalEdgeStyle;align=left;verticalAlign=bottom;rounded=0;entryX=0.008;entryY=0.292;entryDx=0;entryDy=0;entryPerimeter=0;" edge="1" parent="1" target="tYgqTeKbONdqgD6k7K17-76">
          <mxGeometry x="-1" y="3" relative="1" as="geometry">
            <mxPoint x="235" y="561.58" as="sourcePoint" />
            <mxPoint x="360" y="561.58" as="targetPoint" />
            <Array as="points">
              <mxPoint x="360" y="562" />
              <mxPoint x="360" y="560" />
            </Array>
          </mxGeometry>
        </mxCell>
      </root>
    </mxGraphModel>
  </diagram>
</mxfile>
